<svg width="42" height="33" viewBox="0 0 42 33" fill="none" xmlns="http://www.w3.org/2000/svg">
<circle cx="21.1381" cy="16.5" r="15" stroke="black" stroke-width="3"/>
<path d="M21.1381 15C16.7381 9.80001 10.1381 12.8333 7.63806 15C9.23806 4.60001 16.9714 3 20.6381 3C31.0381 3.4 34.3047 11.1667 34.6381 15C28.2381 9.40001 23.1381 12.6667 21.1381 15Z" fill="black" stroke="black"/>
<circle cx="13" cy="17" r="2" fill="#FFA8BA"/>
<circle cx="29" cy="17" r="2" fill="#FFA8BA"/>
<path d="M5.63807 11.5C2.13807 16.6667 -2.76193 25.7 5.63807 20.5V11.5Z" fill="black" stroke="black"/>
<path d="M36.6381 11.5C40.1381 16.6667 45.0381 25.7 36.6381 20.5V11.5Z" fill="black" stroke="black"/>
<path d="M21.7357 18.7676C21.3143 19.0775 20.6857 19.0775 20.2643 18.7676L17.3851 16.6511C16.6067 16.0789 17.0874 15 18.1209 15L23.8791 15C24.9126 15 25.3933 16.0789 24.6149 16.6511L21.7357 18.7676Z" fill="#FAAE2B"/>
</svg>
