<svg width="330" height="43" viewBox="0 0 330 43" fill="none" xmlns="http://www.w3.org/2000/svg">
<path d="M52.988 34V8.8H57.164V30.184H68.576V34H52.988ZM79.3498 34.432C77.5978 34.432 76.0378 34.036 74.6698 33.244C73.3258 32.428 72.2578 31.312 71.4658 29.896C70.6978 28.48 70.3138 26.848 70.3138 25C70.3138 23.152 70.7098 21.52 71.5018 20.104C72.2938 18.688 73.3738 17.584 74.7418 16.792C76.1338 15.976 77.7178 15.568 79.4938 15.568C81.1018 15.568 82.5538 15.988 83.8498 16.828C85.1458 17.644 86.1658 18.832 86.9098 20.392C87.6778 21.952 88.0618 23.812 88.0618 25.972H73.9138L74.4538 25.468C74.4538 26.572 74.6938 27.532 75.1738 28.348C75.6538 29.14 76.2898 29.752 77.0818 30.184C77.8738 30.616 78.7498 30.832 79.7098 30.832C80.8138 30.832 81.7258 30.592 82.4458 30.112C83.1658 29.608 83.7298 28.96 84.1378 28.168L87.7018 29.68C87.1978 30.64 86.5498 31.48 85.7578 32.2C84.9898 32.92 84.0658 33.472 82.9858 33.856C81.9298 34.24 80.7178 34.432 79.3498 34.432ZM74.7058 23.38L74.1298 22.876H84.2818L83.7418 23.38C83.7418 22.396 83.5258 21.592 83.0938 20.968C82.6618 20.32 82.1098 19.84 81.4378 19.528C80.7898 19.192 80.1058 19.024 79.3858 19.024C78.6658 19.024 77.9458 19.192 77.2258 19.528C76.5058 19.84 75.9058 20.32 75.4258 20.968C74.9458 21.592 74.7058 22.396 74.7058 23.38ZM100.59 34V8.8H109.482C111.21 8.8 112.734 9.136 114.054 9.808C115.374 10.48 116.406 11.416 117.15 12.616C117.894 13.792 118.266 15.16 118.266 16.72C118.266 18.28 117.87 19.66 117.078 20.86C116.31 22.06 115.242 23.008 113.874 23.704C112.506 24.376 110.958 24.712 109.23 24.712H104.766V34H100.59ZM114.558 34L108.654 23.776L111.894 21.544L119.274 34H114.558ZM104.766 20.86H109.662C110.478 20.86 111.198 20.68 111.822 20.32C112.47 19.96 112.986 19.468 113.37 18.844C113.778 18.22 113.982 17.512 113.982 16.72C113.982 15.52 113.55 14.536 112.686 13.768C111.822 13 110.706 12.616 109.338 12.616H104.766V20.86ZM130.783 34.432C129.031 34.432 127.471 34.036 126.103 33.244C124.759 32.428 123.691 31.312 122.899 29.896C122.131 28.48 121.747 26.848 121.747 25C121.747 23.152 122.143 21.52 122.935 20.104C123.727 18.688 124.807 17.584 126.175 16.792C127.567 15.976 129.151 15.568 130.927 15.568C132.535 15.568 133.987 15.988 135.283 16.828C136.579 17.644 137.599 18.832 138.343 20.392C139.111 21.952 139.495 23.812 139.495 25.972H125.347L125.887 25.468C125.887 26.572 126.127 27.532 126.607 28.348C127.087 29.14 127.723 29.752 128.515 30.184C129.307 30.616 130.183 30.832 131.143 30.832C132.247 30.832 133.159 30.592 133.879 30.112C134.599 29.608 135.163 28.96 135.571 28.168L139.135 29.68C138.631 30.64 137.983 31.48 137.191 32.2C136.423 32.92 135.499 33.472 134.419 33.856C133.363 34.24 132.151 34.432 130.783 34.432ZM126.139 23.38L125.563 22.876H135.715L135.175 23.38C135.175 22.396 134.959 21.592 134.527 20.968C134.095 20.32 133.543 19.84 132.871 19.528C132.223 19.192 131.539 19.024 130.819 19.024C130.099 19.024 129.379 19.192 128.659 19.528C127.939 19.84 127.339 20.32 126.859 20.968C126.379 21.592 126.139 22.396 126.139 23.38ZM149.748 34.432C147.852 34.432 146.4 33.964 145.392 33.028C144.408 32.068 143.916 30.7 143.916 28.924V10.384H147.912V28.168C147.912 29.008 148.104 29.644 148.488 30.076C148.896 30.508 149.484 30.724 150.252 30.724C150.492 30.724 150.756 30.676 151.044 30.58C151.332 30.484 151.656 30.304 152.016 30.04L153.492 33.1C152.868 33.532 152.244 33.856 151.62 34.072C150.996 34.312 150.372 34.432 149.748 34.432ZM140.928 19.456V16H152.772V19.456H140.928ZM155.816 34V31.012L165.392 19.384H155.816V16H170.468V18.952L160.892 30.652H170.54V34H155.816ZM174.371 34V16H178.367V34H174.371ZM176.387 12.58C175.739 12.58 175.175 12.352 174.695 11.896C174.239 11.416 174.011 10.852 174.011 10.204C174.011 9.556 174.239 9.004 174.695 8.548C175.175 8.092 175.739 7.864 176.387 7.864C177.035 7.864 177.587 8.092 178.043 8.548C178.523 9.004 178.763 9.556 178.763 10.204C178.763 10.852 178.523 11.416 178.043 11.896C177.587 12.352 177.035 12.58 176.387 12.58ZM191.147 34.432C189.395 34.432 187.835 34.036 186.467 33.244C185.123 32.428 184.055 31.312 183.263 29.896C182.495 28.48 182.111 26.848 182.111 25C182.111 23.152 182.507 21.52 183.299 20.104C184.091 18.688 185.171 17.584 186.539 16.792C187.931 15.976 189.515 15.568 191.291 15.568C192.899 15.568 194.351 15.988 195.647 16.828C196.943 17.644 197.963 18.832 198.707 20.392C199.475 21.952 199.859 23.812 199.859 25.972H185.711L186.251 25.468C186.251 26.572 186.491 27.532 186.971 28.348C187.451 29.14 188.087 29.752 188.879 30.184C189.671 30.616 190.547 30.832 191.507 30.832C192.611 30.832 193.523 30.592 194.243 30.112C194.963 29.608 195.527 28.96 195.935 28.168L199.499 29.68C198.995 30.64 198.347 31.48 197.555 32.2C196.787 32.92 195.863 33.472 194.783 33.856C193.727 34.24 192.515 34.432 191.147 34.432ZM186.503 23.38L185.927 22.876H196.079L195.539 23.38C195.539 22.396 195.323 21.592 194.891 20.968C194.459 20.32 193.907 19.84 193.235 19.528C192.587 19.192 191.903 19.024 191.183 19.024C190.463 19.024 189.743 19.192 189.023 19.528C188.303 19.84 187.703 20.32 187.223 20.968C186.743 21.592 186.503 22.396 186.503 23.38ZM202.947 34V16H206.727L206.979 19.312V34H202.947ZM215.151 34V24.784H219.183V34H215.151ZM215.151 24.784C215.151 23.344 214.983 22.24 214.647 21.472C214.335 20.68 213.879 20.128 213.279 19.816C212.703 19.504 212.019 19.348 211.227 19.348C209.883 19.324 208.839 19.768 208.095 20.68C207.351 21.592 206.979 22.9 206.979 24.604H205.467C205.467 22.708 205.743 21.088 206.295 19.744C206.847 18.376 207.639 17.344 208.671 16.648C209.703 15.928 210.927 15.568 212.343 15.568C213.783 15.568 215.007 15.856 216.015 16.432C217.047 17.008 217.827 17.908 218.355 19.132C218.907 20.332 219.183 21.904 219.183 23.848V24.784H215.151ZM232.707 34V8.8H236.883V30.184H248.295V34H232.707ZM251.293 34V16H255.289V34H251.293ZM253.309 12.58C252.661 12.58 252.097 12.352 251.617 11.896C251.161 11.416 250.933 10.852 250.933 10.204C250.933 9.556 251.161 9.004 251.617 8.548C252.097 8.092 252.661 7.864 253.309 7.864C253.957 7.864 254.509 8.092 254.965 8.548C255.445 9.004 255.685 9.556 255.685 10.204C255.685 10.852 255.445 11.416 254.965 11.896C254.509 12.352 253.957 12.58 253.309 12.58ZM260.041 34V8.8H264.073V30.652L263.857 34H260.041ZM269.761 34.432C268.249 34.432 266.941 34.048 265.837 33.28C264.757 32.488 263.929 31.384 263.353 29.968C262.777 28.552 262.489 26.896 262.489 25C262.489 23.08 262.777 21.424 263.353 20.032C263.929 18.616 264.757 17.524 265.837 16.756C266.941 15.964 268.249 15.568 269.761 15.568C271.393 15.568 272.809 15.964 274.009 16.756C275.233 17.524 276.181 18.616 276.853 20.032C277.549 21.424 277.897 23.08 277.897 25C277.897 26.896 277.549 28.552 276.853 29.968C276.181 31.384 275.233 32.488 274.009 33.28C272.809 34.048 271.393 34.432 269.761 34.432ZM268.753 30.76C269.713 30.76 270.565 30.52 271.309 30.04C272.053 29.536 272.641 28.852 273.073 27.988C273.529 27.124 273.757 26.128 273.757 25C273.757 23.872 273.541 22.876 273.109 22.012C272.701 21.148 272.125 20.476 271.381 19.996C270.637 19.516 269.773 19.276 268.789 19.276C267.877 19.276 267.061 19.516 266.341 19.996C265.621 20.476 265.057 21.148 264.649 22.012C264.265 22.876 264.073 23.872 264.073 25C264.073 26.128 264.265 27.124 264.649 27.988C265.057 28.852 265.609 29.536 266.305 30.04C267.025 30.52 267.841 30.76 268.753 30.76ZM284.009 24.424C284.009 22.48 284.381 20.884 285.125 19.636C285.869 18.388 286.829 17.464 288.005 16.864C289.205 16.24 290.453 15.928 291.749 15.928V19.78C290.645 19.78 289.601 19.936 288.617 20.248C287.657 20.536 286.877 21.016 286.277 21.688C285.677 22.36 285.377 23.248 285.377 24.352L284.009 24.424ZM281.345 34V16H285.377V34H281.345ZM302.451 34.432C300.699 34.432 299.139 34.036 297.771 33.244C296.427 32.428 295.359 31.312 294.567 29.896C293.799 28.48 293.415 26.848 293.415 25C293.415 23.152 293.811 21.52 294.603 20.104C295.395 18.688 296.475 17.584 297.843 16.792C299.235 15.976 300.819 15.568 302.595 15.568C304.203 15.568 305.655 15.988 306.951 16.828C308.247 17.644 309.267 18.832 310.011 20.392C310.779 21.952 311.163 23.812 311.163 25.972H297.015L297.555 25.468C297.555 26.572 297.795 27.532 298.275 28.348C298.755 29.14 299.391 29.752 300.183 30.184C300.975 30.616 301.851 30.832 302.811 30.832C303.915 30.832 304.827 30.592 305.547 30.112C306.267 29.608 306.831 28.96 307.239 28.168L310.803 29.68C310.299 30.64 309.651 31.48 308.859 32.2C308.091 32.92 307.167 33.472 306.087 33.856C305.031 34.24 303.819 34.432 302.451 34.432ZM297.807 23.38L297.231 22.876H307.383L306.843 23.38C306.843 22.396 306.627 21.592 306.195 20.968C305.763 20.32 305.211 19.84 304.539 19.528C303.891 19.192 303.207 19.024 302.487 19.024C301.767 19.024 301.047 19.192 300.327 19.528C299.607 19.84 299.007 20.32 298.527 20.968C298.047 21.592 297.807 22.396 297.807 23.38Z" fill="black"/>
<circle cx="21.1381" cy="21.5" r="15" stroke="black" stroke-width="3"/>
<path d="M21.1381 20C16.7381 14.8 10.1381 17.8333 7.63806 20C9.23806 9.60001 16.9714 8 20.6381 8C31.0381 8.4 34.3047 16.1667 34.6381 20C28.2381 14.4 23.1381 17.6667 21.1381 20Z" fill="black" stroke="black"/>
<circle cx="13" cy="22" r="2" fill="#FFA8BA"/>
<circle cx="29" cy="22" r="2" fill="#FFA8BA"/>
<path d="M5.63807 16.5C2.13807 21.6667 -2.76193 30.7 5.63807 25.5V16.5Z" fill="black" stroke="black"/>
<path d="M36.6381 16.5C40.1381 21.6667 45.0381 30.7 36.6381 25.5V16.5Z" fill="black" stroke="black"/>
<path d="M21.7357 23.7676C21.3143 24.0775 20.6857 24.0775 20.2643 23.7676L17.3851 21.6511C16.6067 21.0789 17.0874 20 18.1209 20L23.8791 20C24.9126 20 25.3933 21.0789 24.6149 21.6511L21.7357 23.7676Z" fill="#FAAE2B"/>
</svg>
